# xmcd
#
# Track frame offsets:
#	150
#	15275
#	27067
#	49461
#	65178
#	85810
#	113044
#	132203
#	156312
#	179760
#	197214
#	214706
#	230786
#	262641
#	276902
#	289666
#	308128
#	333762
#	345724
#
# Disc length: 4804 seconds
#
# Revision: 0
# Processed by: cddbd v1.5.2PL0 Copyright (c) Steve Scherf et al.
# Submitted via: EasyCDDAExtractor 9.0.2.1
#
DISCID=1812c213
DTITLE=Various Artist - Romantic Collection Universal
DYEAR=1999
DGENRE=Blues
TTITLE0=ABBA - S.O.S.
TTITLE1=Demis Roussos - From Souvenir To Souvenirs
TTITLE2=Sam Brown - Stop
TTITLE3=Garry Marauder - Soundtrack From "Flash Dancer" - Theme
TTITLE4=Scorpions - Send Me An Angel
TTITLE5=10 CC - I Not In Love
TTITLE6=Boston - Amanda
TTITLE7=Black - Sweetest Smile
TTITLE8=James Last - Paintings
TTITLE9=Elton John - Sorry, Seems To Be The Hardest
TTITLE10=Dusty - If You Go Away
TTITLE11=Chris De Burg - Moonlight And Vodka
TTITLE12=Christians - Words
TTITLE13=Paul Mauriat - El Condor Pasa
TTITLE14=Platters - Only Because
TTITLE15=Donna Summer - On The Radio
TTITLE16=Extrime - More Than Words
TTITLE17=Mamas and Papas - California Dreamin'
TTITLE18=Rock Orchestra - S.O.S.
EXTD=YEAR: 1999\n
EXTT0=
EXTT1=
EXTT2=
EXTT3=
EXTT4=
EXTT5=
EXTT6=
EXTT7=
EXTT8=
EXTT9=
EXTT10=
EXTT11=
EXTT12=
EXTT13=
EXTT14=
EXTT15=
EXTT16=
EXTT17=
EXTT18=
PLAYORDER=
